# xmcd CD database file
#
# Track frame offsets:
#	150
#	14122
#	52483
#	68006
#	83288
#	107402
#	135135
#	151407
#	168031
#	191753
#
# Disc length: 3623 seconds
#
# Revision: 0
# Processed by: cddbd v1.5.2PL0 Copyright (c) Steve Scherf et al.
# Submitted via: CDex 1.51
#
DISCID=760e250a
DTITLE=Taj Mahal  - The real thing
DYEAR=1969
DGENRE=Blues
TTITLE0=Fishin' Blues 
TTITLE1=Ain't Gwine to Whistle Dixie (Any Mo') 
TTITLE2=Sweet Mama Janisse 
TTITLE3=Going up to the Country, Paint My Mailbox Blue 
TTITLE4=Big Kneed Gal 
TTITLE5=You're Gonna Need Somebody on Your Bond 
TTITLE6=Tom and Sally Drake 
TTITLE7=Diving Duck Blues 
TTITLE8=John, Ain't It Hard 
TTITLE9=You Ain't No Street Walker Mama, Honey But I Do Love They Way You ... 
EXTD=YEAR: 1969
EXTT0=
EXTT1=
EXTT2=
EXTT3=
EXTT4=
EXTT5=
EXTT6=
EXTT7=
EXTT8=
EXTT9=
PLAYORDER=
